<?xml version="1.0" standalone="no"?>
<!DOCTYPE svg PUBLIC "-//W3C//DTD SVG 20010904//EN"
 "http://www.w3.org/TR/2001/REC-SVG-20010904/DTD/svg10.dtd">
<svg version="1.0" xmlns="http://www.w3.org/2000/svg"
 width="96.000000pt" height="96.000000pt" viewBox="0 0 96.000000 96.000000"
 preserveAspectRatio="xMidYMid meet">
<metadata>
Created by potrace 1.14, written by Peter Selinger 2001-2017
</metadata>
<g transform="translate(0.000000,96.000000) scale(0.100000,-0.100000)"
fill="#000000" stroke="none">
<path d="M135 900 c-10 -11 -13 -59 -13 -200 0 -102 4 -193 9 -202 5 -10 5
-19 0 -22 -13 -8 -12 -378 1 -393 15 -19 661 -19 675 0 13 15 14 385 2 392 -4
3 -5 16 0 28 5 12 8 104 9 204 0 144 -3 185 -14 194 -10 8 -109 12 -335 13
-273 1 -322 -1 -334 -14z"/>
</g>
</svg>
